<?xml version="1.0" encoding="UTF-8" standalone="no"?>
<!DOCTYPE svg PUBLIC "-//W3C//DTD SVG 1.1//EN"
 "http://www.w3.org/Graphics/SVG/1.1/DTD/svg11.dtd">
<!-- Generated by graphviz version 14.1.1 (20251213.1925)
 -->
<!-- Title: models_diagram Pages: 1 -->
<svg width="1140pt" height="262pt"
 viewBox="0.00 0.00 1140.00 262.00" xmlns="http://www.w3.org/2000/svg" xmlns:xlink="http://www.w3.org/1999/xlink">
<g id="graph0" class="graph" transform="scale(1 1) rotate(0) translate(4 258)">
<title>models_diagram</title>
<polygon fill="none" stroke="none" points="-4,4 -4,-258 1136,-258 1136,4 -4,4"/>
<!-- AdminUser -->
<g id="node1" class="node">
<title>AdminUser</title>
<path fill="none" stroke="black" d="M12,-89C12,-89 316,-89 316,-89 322,-89 328,-95 328,-101 328,-101 328,-241.5 328,-241.5 328,-247.5 322,-253.5 316,-253.5 316,-253.5 12,-253.5 12,-253.5 6,-253.5 0,-247.5 0,-241.5 0,-241.5 0,-101 0,-101 0,-95 6,-89 12,-89"/>
<text xml:space="preserve" text-anchor="middle" x="164" y="-236.2" font-family="Times,serif" font-size="14.00">AdminUser</text>
<polyline fill="none" stroke="black" points="0,-229 328,-229"/>
<text xml:space="preserve" text-anchor="start" x="8" y="-211.7" font-family="Times,serif" font-size="14.00">updated_at :timestamp(6) without time zone</text>
<text xml:space="preserve" text-anchor="start" x="8" y="-195.2" font-family="Times,serif" font-size="14.00">created_at :timestamp(6) without time zone</text>
<text xml:space="preserve" text-anchor="start" x="8" y="-178.7" font-family="Times,serif" font-size="14.00">email :character varying</text>
<text xml:space="preserve" text-anchor="start" x="8" y="-162.2" font-family="Times,serif" font-size="14.00">encrypted_password :character varying</text>
<text xml:space="preserve" text-anchor="start" x="8" y="-145.7" font-family="Times,serif" font-size="14.00">remember_created_at :timestamp(6) without time zone</text>
<text xml:space="preserve" text-anchor="start" x="8" y="-129.2" font-family="Times,serif" font-size="14.00">reset_password_sent_at :timestamp(6) without time zone</text>
<text xml:space="preserve" text-anchor="start" x="8" y="-112.7" font-family="Times,serif" font-size="14.00">reset_password_token :character varying</text>
<text xml:space="preserve" text-anchor="start" x="8" y="-96.2" font-family="Times,serif" font-size="14.00">id :uuid</text>
</g>
<!-- ApplicationRecord -->
<g id="node2" class="node">
<title>ApplicationRecord</title>
<ellipse fill="none" stroke="black" cx="427" cy="-171.25" rx="81.04" ry="18"/>
<text xml:space="preserve" text-anchor="middle" x="427" y="-166.2" font-family="Times,serif" font-size="14.00">ApplicationRecord</text>
</g>
<!-- Article -->
<g id="node3" class="node">
<title>Article</title>
<path fill="none" stroke="black" d="M538.5,-105.5C538.5,-105.5 773.5,-105.5 773.5,-105.5 779.5,-105.5 785.5,-111.5 785.5,-117.5 785.5,-117.5 785.5,-225 785.5,-225 785.5,-231 779.5,-237 773.5,-237 773.5,-237 538.5,-237 538.5,-237 532.5,-237 526.5,-231 526.5,-225 526.5,-225 526.5,-117.5 526.5,-117.5 526.5,-111.5 532.5,-105.5 538.5,-105.5"/>
<text xml:space="preserve" text-anchor="middle" x="656" y="-219.7" font-family="Times,serif" font-size="14.00">Article</text>
<polyline fill="none" stroke="black" points="526.5,-212.5 785.5,-212.5"/>
<text xml:space="preserve" text-anchor="start" x="534.5" y="-195.2" font-family="Times,serif" font-size="14.00">id :uuid</text>
<text xml:space="preserve" text-anchor="start" x="534.5" y="-178.7" font-family="Times,serif" font-size="14.00">body :text</text>
<text xml:space="preserve" text-anchor="start" x="534.5" y="-162.2" font-family="Times,serif" font-size="14.00">created_at :timestamp(6) without time zone</text>
<text xml:space="preserve" text-anchor="start" x="534.5" y="-145.7" font-family="Times,serif" font-size="14.00">slug :character varying</text>
<text xml:space="preserve" text-anchor="start" x="534.5" y="-129.2" font-family="Times,serif" font-size="14.00">title :character varying</text>
<text xml:space="preserve" text-anchor="start" x="534.5" y="-112.7" font-family="Times,serif" font-size="14.00">updated_at :timestamp(6) without time zone</text>
</g>
<!-- ActiveStorage::Attachment -->
<g id="node5" class="node">
<title>ActiveStorage::Attachment</title>
<ellipse fill="none" stroke="black" cx="547" cy="-18" rx="112.26" ry="18"/>
<text xml:space="preserve" text-anchor="middle" x="547" y="-12.95" font-family="Times,serif" font-size="14.00">ActiveStorage::Attachment</text>
</g>
<!-- Article&#45;&gt;ActiveStorage::Attachment -->
<g id="edge1" class="edge">
<title>Article&#45;&gt;ActiveStorage::Attachment</title>
<path fill="none" stroke="#a01eb8" d="M603.13,-96.88C589.57,-78.07 575.87,-59.06 565.4,-44.53"/>
<polygon fill="#a01eb8" stroke="#a01eb8" points="603.1,-96.84 605.3,-107.59 606.22,-101.17 608.75,-104.69 608.75,-104.69 608.75,-104.69 606.22,-101.17 612.6,-102.33 603.1,-96.84"/>
<polygon fill="#a01eb8" stroke="#a01eb8" points="565.37,-44.5 563.18,-33.75 562.25,-40.17 559.72,-36.65 559.72,-36.65 559.72,-36.65 562.25,-40.17 555.88,-39.01 565.37,-44.5"/>
<text xml:space="preserve" text-anchor="middle" x="650.88" y="-57.2" font-family="Times,serif" font-size="14.00">cover_image_attachment</text>
</g>
<!-- ActiveStorage::Blob -->
<g id="node6" class="node">
<title>ActiveStorage::Blob</title>
<ellipse fill="none" stroke="black" cx="764" cy="-18" rx="86.67" ry="18"/>
<text xml:space="preserve" text-anchor="middle" x="764" y="-12.95" font-family="Times,serif" font-size="14.00">ActiveStorage::Blob</text>
</g>
<!-- Article&#45;&gt;ActiveStorage::Blob -->
<g id="edge2" class="edge">
<title>Article&#45;&gt;ActiveStorage::Blob</title>
<path fill="none" stroke="#be58e0" d="M708.39,-96.88C721.82,-78.07 735.4,-59.06 745.77,-44.53"/>
<polygon fill="#be58e0" stroke="#be58e0" points="708.43,-96.82 698.96,-102.34 705.33,-101.16 702.82,-104.68 702.82,-104.68 702.82,-104.68 705.33,-101.16 706.29,-107.57 708.43,-96.82"/>
<polygon fill="#be58e0" stroke="#be58e0" points="745.78,-44.52 755.25,-39 748.88,-40.18 751.39,-36.66 751.39,-36.66 751.39,-36.66 748.88,-40.18 747.93,-33.77 745.78,-44.52"/>
<text xml:space="preserve" text-anchor="middle" x="788.53" y="-57.2" font-family="Times,serif" font-size="14.00">cover_image_blob</text>
</g>
<!-- User -->
<g id="node4" class="node">
<title>User</title>
<path fill="none" stroke="black" d="M816,-89C816,-89 1120,-89 1120,-89 1126,-89 1132,-95 1132,-101 1132,-101 1132,-241.5 1132,-241.5 1132,-247.5 1126,-253.5 1120,-253.5 1120,-253.5 816,-253.5 816,-253.5 810,-253.5 804,-247.5 804,-241.5 804,-241.5 804,-101 804,-101 804,-95 810,-89 816,-89"/>
<text xml:space="preserve" text-anchor="middle" x="968" y="-236.2" font-family="Times,serif" font-size="14.00">User</text>
<polyline fill="none" stroke="black" points="804,-229 1132,-229"/>
<text xml:space="preserve" text-anchor="start" x="812" y="-211.7" font-family="Times,serif" font-size="14.00">updated_at :timestamp(6) without time zone</text>
<text xml:space="preserve" text-anchor="start" x="812" y="-195.2" font-family="Times,serif" font-size="14.00">email :character varying</text>
<text xml:space="preserve" text-anchor="start" x="812" y="-178.7" font-family="Times,serif" font-size="14.00">encrypted_password :character varying</text>
<text xml:space="preserve" text-anchor="start" x="812" y="-162.2" font-family="Times,serif" font-size="14.00">reset_password_token :character varying</text>
<text xml:space="preserve" text-anchor="start" x="812" y="-145.7" font-family="Times,serif" font-size="14.00">reset_password_sent_at :timestamp(6) without time zone</text>
<text xml:space="preserve" text-anchor="start" x="812" y="-129.2" font-family="Times,serif" font-size="14.00">remember_created_at :timestamp(6) without time zone</text>
<text xml:space="preserve" text-anchor="start" x="812" y="-112.7" font-family="Times,serif" font-size="14.00">created_at :timestamp(6) without time zone</text>
<text xml:space="preserve" text-anchor="start" x="812" y="-96.2" font-family="Times,serif" font-size="14.00">id :uuid</text>
</g>
</g>
</svg>
